<svg width="201" height="60" viewBox="0 0 201 60" fill="none" xmlns="http://www.w3.org/2000/svg">
<path d="M13.4868 6.90956C14.0616 5.7189 15.0344 6.84677 15.7419 7.24884C17.8076 8.42291 20.3775 9.25363 22.7644 9.22213C23.4643 9.21276 24.5446 8.73903 25.2547 8.56383C28.3735 7.79376 31.3311 7.82072 34.4614 8.42335C36.0946 8.73771 36.987 9.44699 38.7005 9.17643C40.6366 8.88405 42.4554 8.18195 44.1621 7.23405C44.6762 6.9485 45.2222 6.47943 45.7485 6.25231C46.0743 6.23593 46.4619 6.30072 46.6054 6.64001C47.0091 7.59411 45.1834 12.6529 44.6027 14.1336C47.0321 17.4948 47.1994 22.2685 45.9764 26.1042C46.7494 27.0061 47.6405 27.7744 48.3581 28.7374C50.2372 31.2594 52.7431 37.5402 52.2594 40.8398C51.7243 44.49 48.6301 45.5779 45.3234 45.1192C43.8606 47.9041 41.6113 49.7485 38.6617 50.7934C38.3226 52.0779 37.8342 54.423 36.156 53.0675C35.4934 53.65 35.0523 53.6239 34.4097 53.0675C32.9428 54.419 32.657 52.4289 32.3255 51.5016C30.701 51.5205 29.6304 51.6195 27.9394 51.5016C27.5109 52.4111 27.2765 54.5065 25.8534 53.0675C25.2158 53.6869 24.6991 53.6065 24.1467 52.9621C22.7018 54.5864 21.9443 52.1248 21.6632 51.0286C20.5445 50.6347 19.4853 49.9881 18.52 49.3083C17.4783 48.5746 16.5244 47.5918 15.7752 46.5547C15.5452 46.2364 15.1186 45.4238 14.8772 45.2164C12.7062 45.137 10.9419 45.4079 9.28223 43.4463C8.16251 42.123 7.90396 40.8786 8.02862 39.186C8.39424 34.2182 10.6564 29.392 14.415 26.1042C13.1064 22.312 13.3236 17.5404 15.5985 14.1336C14.8507 11.9394 13.5509 9.2151 13.4868 6.90956ZM44.823 8.56398C42.7727 9.63244 40.8761 10.423 38.5532 10.6886C37.0251 10.8633 36.2376 10.4497 34.8341 10.0707C31.8133 9.25495 28.5823 9.26476 25.5537 10.0341C24.6969 10.2516 23.8536 10.6341 22.9614 10.6969C20.5627 10.8461 17.4238 9.97814 15.3482 8.70827C15.9156 10.9158 17.1603 14.7559 18.52 16.6593L18.5603 16.6451C19.1294 15.8174 20.2151 15.0569 21.1251 14.652C24.5091 13.1467 28.3091 14.6176 30.0591 17.7973C30.342 17.3645 30.6739 16.8339 31.0123 16.4539C33.9272 13.179 39.0376 13.3515 41.7751 16.6593C41.9584 16.0417 42.2507 15.581 42.5365 15.0058C42.8876 14.2987 45.0174 9.16984 44.823 8.56398ZM36.156 15.556C32.2161 15.6077 30.1089 19.2998 30.9471 22.9143C32.3683 23.2902 32.9964 23.8914 33.1388 25.3775C34.3582 25.9773 35.0386 26.4168 36.5009 26.3923C44.4413 26.184 42.6038 14.8526 36.156 15.556ZM23.8382 15.556C16.1064 16.2408 17.1367 26.503 23.9792 26.5168C25.2026 26.4726 26.1112 26.2408 27.1393 25.5417C27.0517 24.1603 27.8729 23.4005 29.0729 22.9143C30.0955 19.1223 27.9232 15.6384 23.8382 15.556ZM43.8569 15.8016C43.4425 16.5393 43.0457 17.3053 42.5976 18.0203C45.1642 24.0276 39.6275 29.8027 33.6099 27.2897C33.2522 27.1404 32.9065 26.9737 32.5604 26.7988C32.1361 27.6729 31.7118 28.0991 31.0501 28.7656C29.4946 30.3327 28.79 28.2075 27.5835 27.0222C21.851 30.5214 14.8094 24.6506 17.5866 18.0203C17.1713 17.4055 16.63 16.5089 16.4393 15.8016C15.047 18.1123 15.0999 20.3897 15.0814 22.9143C15.2099 23.2936 15.2449 23.6954 15.3366 24.0836C16.6753 29.7477 22.1005 34.1949 27.8071 34.9055C27.9694 34.2622 28.7018 30.4646 29.2245 30.2438C32.7168 28.7697 36.2504 29.7636 38.3087 32.9983C43.772 29.5969 46.8246 23.4682 44.4826 17.1742C44.3604 16.8458 44.0534 16.06 43.8569 15.8016ZM30.0591 24.2794C29.3371 24.3667 28.5243 24.6102 28.6094 25.5214C28.6382 25.8292 29.9154 27.8365 30.2055 27.5382C30.7762 26.912 31.351 26.1609 31.6826 25.3775C31.5032 24.5453 30.9115 24.2053 30.0591 24.2794ZM15.0814 27.5382C12.2877 29.5121 10.1912 34.6824 9.63702 37.8819C9.23301 40.2144 9.35342 42.3711 11.7279 43.462C12.6124 43.7675 13.4877 43.7878 14.415 43.7106C12.7081 39.4559 14.4531 33.7039 16.4393 29.8376C15.8717 29.0223 15.4977 28.4585 15.0814 27.5382ZM45.2608 27.5382C44.8044 28.5475 44.3012 29.3155 43.6712 30.2277L43.6942 30.2706C43.9878 30.8069 44.3746 31.273 44.6337 31.8409C46.1159 35.0886 46.8953 38.8731 46.2029 42.4187C46.1134 42.8771 46.0148 43.2433 45.9764 43.7106C46.9283 43.7765 47.6472 43.7798 48.5463 43.462C51.038 42.3276 50.9661 40.4719 50.5664 38.1579C49.9306 34.4774 48.572 30.9802 45.9837 28.225C45.8509 28.0835 45.4211 27.6229 45.2608 27.5382ZM32.0966 31.0817C31.3251 31.1062 30.9329 31.2381 30.2055 31.4886C29.9756 32.2886 29.7887 33.153 29.5932 33.966L28.1348 39.8757C27.9982 40.4353 27.8443 40.9744 27.8071 41.5493C29.048 41.0006 30.458 40.2897 31.6826 39.6868C33.7475 38.727 35.8357 37.7363 37.8476 36.6717C37.675 33.7143 35.213 30.6444 32.0966 31.0817ZM17.3934 31.0817C15.7523 35.1039 14.2375 39.5306 15.9561 43.8115C16.9334 46.2462 19.1657 48.3727 21.5928 49.3593L21.8393 49.4571C22.5829 48.2803 23.6916 48.0746 24.8611 48.8072C26.0591 47.8779 27.4084 48.6434 27.9394 49.9047C29.0601 50.3275 31.1704 50.2505 32.3255 49.9047C32.6046 48.4506 34.2783 48.0181 35.4344 48.8072C36.5976 47.9932 37.5336 48.4539 38.3087 49.4571L38.3673 49.4191C38.9844 49.0211 39.7161 48.7322 40.3743 48.3112C43.3737 46.3927 44.3395 44.3633 44.9685 41.0485C44.938 40.1703 44.9894 39.2251 44.9238 38.3462C44.798 36.6636 43.7313 32.4839 42.5976 31.3763C41.2262 32.7554 40.1853 33.3036 38.9396 34.4174C40.229 37.9271 38.7424 37.9483 36.1409 39.2053L28.3523 42.9352C27.8731 43.1573 25.5342 44.3696 25.9163 42.7329C26.408 40.626 26.972 38.5112 27.4486 36.4025C23.1287 35.5644 20.4972 33.9742 17.3934 31.0817ZM23.471 49.9047C22.8748 50.284 23.0469 51.5289 23.7275 51.6698C24.2784 51.3444 24.2231 49.8837 23.471 49.9047ZM25.8534 49.9047C25.4084 50.3611 25.237 51.9941 26.1754 51.6698C26.6127 51.1693 26.7657 49.8962 25.8534 49.9047ZM33.9868 49.9047C33.4582 50.3401 33.612 51.7496 34.4097 51.6698C34.8023 51.4568 34.9732 49.8374 33.9868 49.9047ZM36.5009 49.9047C35.9778 50.2838 35.9336 51.9009 36.7043 51.6698C37.0823 51.194 37.433 49.8695 36.5009 49.9047Z" fill="#EC6D27"/>
<path d="M20.9091 20.432C21.1177 20.0314 21.2233 19.9681 21.6632 19.884C22.4452 19.9584 22.2807 20.7745 22.607 21.2948C23.1978 22.2368 24.797 22.0501 25.1165 20.9656C25.4169 19.9458 26.0093 19.2817 26.6928 20.432C26.7117 20.9293 26.6362 21.1937 26.4585 21.6474C25.2134 24.4577 20.8456 23.6784 20.9091 20.432Z" fill="#EC6D27"/>
<path d="M39.1823 21.7896C37.9831 24.0434 34.731 23.9363 33.781 21.524C33.5232 20.8691 33.4835 20.0975 34.2584 19.8839C35.1711 19.9144 34.9574 20.5588 35.2245 21.1338C35.7624 22.2922 37.6067 22.1537 37.9284 20.9003C37.9943 20.6433 37.9775 20.4656 38.0799 20.1954C39.1646 19.1609 39.7195 20.5899 39.1823 21.7896Z" fill="#EC6D27"/>
<path d="M31.9415 34.4175C30.9475 34.5741 30.0939 33.325 31.3152 32.7678C32.4693 32.6991 33.1083 34.0028 31.9415 34.4175Z" fill="#F5B43C"/>
<path d="M35.4344 35.6167C34.3926 35.6975 33.3757 34.5131 34.6157 33.9426C35.7723 33.8479 36.5012 35.0552 35.4344 35.6167Z" fill="#F5B43C"/>
<path d="M33.3589 37.8148C32.2566 37.8657 31.2806 36.471 32.4426 35.9953C33.4247 35.9376 34.5344 37.1817 33.3589 37.8148Z" fill="#F5B43C"/>
<path d="M30.5677 38.8621C29.6765 39.1149 28.6117 37.8865 29.7423 37.3133C30.8467 37.158 31.6221 38.3126 30.5677 38.8621Z" fill="#F5B43C"/>
<path d="M84.968 17.464C86.576 17.464 88.04 17.668 89.36 18.076C90.68 18.46 91.808 19.012 92.744 19.732C93.68 20.452 94.4 21.316 94.904 22.324C95.432 23.332 95.696 24.436 95.696 25.636C95.696 26.788 95.492 27.952 95.084 29.128C94.7 30.304 94.148 31.444 93.428 32.548C92.708 33.652 91.832 34.684 90.8 35.644C89.768 36.604 88.616 37.444 87.344 38.164C86.072 38.884 84.692 39.46 83.204 39.892C81.74 40.3 80.204 40.504 78.596 40.504C76.916 40.504 75.416 40.312 74.096 39.928C72.776 39.544 71.66 38.992 70.748 38.272C69.836 37.552 69.14 36.688 68.66 35.68C68.18 34.648 67.94 33.508 67.94 32.26C67.94 30.292 68.408 28.42 69.344 26.644C70.28 24.844 71.528 23.272 73.088 21.928C74.672 20.56 76.484 19.48 78.524 18.688C80.588 17.872 82.736 17.464 84.968 17.464ZM83.528 19.948C81.968 19.948 80.492 20.236 79.1 20.812C77.732 21.388 76.532 22.18 75.5 23.188C74.468 24.172 73.652 25.348 73.052 26.716C72.476 28.06 72.188 29.5 72.188 31.036C72.188 32.164 72.368 33.16 72.728 34.024C73.088 34.888 73.592 35.62 74.24 36.22C74.912 36.796 75.716 37.24 76.652 37.552C77.588 37.864 78.62 38.02 79.748 38.02C81.476 38.02 83.06 37.708 84.5 37.084C85.94 36.46 87.176 35.632 88.208 34.6C89.264 33.568 90.08 32.404 90.656 31.108C91.232 29.812 91.52 28.48 91.52 27.112C91.52 26.032 91.316 25.048 90.908 24.16C90.524 23.272 89.972 22.516 89.252 21.892C88.556 21.268 87.716 20.788 86.732 20.452C85.772 20.116 84.704 19.948 83.528 19.948ZM106.049 37.948C106.745 37.948 107.417 37.756 108.065 37.372C108.737 36.988 109.325 36.484 109.829 35.86C110.357 35.236 110.777 34.516 111.089 33.7C111.401 32.86 111.557 31.984 111.557 31.072C111.557 30.136 111.341 29.2 110.909 28.264C110.741 27.928 110.657 27.616 110.657 27.328C110.657 26.992 110.849 26.68 111.233 26.392C111.617 26.104 112.097 25.96 112.673 25.96C113.105 25.96 113.501 26.056 113.861 26.248C114.221 26.44 114.521 26.74 114.761 27.148C115.001 27.556 115.169 27.988 115.265 28.444C115.361 28.9 115.409 29.38 115.409 29.884C115.409 30.46 115.349 30.988 115.229 31.468C115.133 31.948 115.013 32.404 114.869 32.836C114.725 33.268 114.593 33.688 114.473 34.096C114.377 34.504 114.329 34.912 114.329 35.32C114.329 36.328 114.485 37.036 114.797 37.444C115.133 37.828 115.625 38.02 116.273 38.02C116.993 38.02 117.689 37.852 118.361 37.516C119.033 37.156 119.621 36.688 120.125 36.112C120.653 35.512 121.073 34.828 121.385 34.06C121.697 33.292 121.853 32.5 121.853 31.684C121.853 30.604 121.577 29.344 121.025 27.904C120.905 27.544 120.845 27.256 120.845 27.04C120.845 26.68 121.049 26.344 121.457 26.032C121.865 25.72 122.369 25.564 122.969 25.564C123.953 25.564 124.673 25.972 125.129 26.788C125.633 27.652 125.885 28.648 125.885 29.776C125.885 30.976 125.585 32.212 124.985 33.484C124.409 34.732 123.629 35.884 122.645 36.94C121.685 37.972 120.569 38.824 119.297 39.496C118.025 40.168 116.705 40.504 115.337 40.504C114.257 40.504 113.417 40.192 112.817 39.568C112.217 38.92 111.917 38.032 111.917 36.904C110.885 38.104 109.757 39.004 108.533 39.604C107.333 40.204 106.181 40.504 105.077 40.504C103.565 40.504 102.461 40.132 101.765 39.388C101.069 38.62 100.721 37.624 100.721 36.4C100.721 35.8 100.769 35.104 100.865 34.312C100.961 33.52 101.105 32.692 101.297 31.828C101.489 30.94 101.717 30.04 101.981 29.128C102.245 28.216 102.557 27.328 102.917 26.464C103.205 25.84 103.721 25.528 104.465 25.528C104.921 25.528 105.269 25.648 105.509 25.888C105.773 26.104 105.905 26.38 105.905 26.716C105.905 26.836 105.893 26.932 105.869 27.004C105.605 28.228 105.377 29.296 105.185 30.208C104.993 31.12 104.837 31.912 104.717 32.584C104.597 33.232 104.513 33.784 104.465 34.24C104.417 34.696 104.393 35.08 104.393 35.392C104.393 36.256 104.537 36.904 104.825 37.336C105.137 37.744 105.545 37.948 106.049 37.948ZM135.091 38.92C135.091 39.328 134.947 39.676 134.659 39.964C134.371 40.228 133.903 40.36 133.255 40.36C132.631 40.36 132.175 40.228 131.887 39.964C131.599 39.676 131.455 39.328 131.455 38.92V16.168C131.455 15.76 131.599 15.424 131.887 15.16C132.175 14.872 132.631 14.728 133.255 14.728C133.903 14.728 134.371 14.872 134.659 15.16C134.947 15.424 135.091 15.76 135.091 16.168V38.92ZM157.454 36.184C158.174 36.184 158.534 36.532 158.534 37.228C158.534 37.564 158.45 37.84 158.282 38.056C158.114 38.272 157.814 38.5 157.382 38.74C156.974 38.956 156.446 39.172 155.798 39.388C155.15 39.604 154.394 39.796 153.53 39.964C152.69 40.108 151.778 40.228 150.794 40.324C149.81 40.444 148.79 40.504 147.734 40.504C146.318 40.504 145.19 40.444 144.35 40.324C143.534 40.204 142.922 40.012 142.514 39.748C142.106 39.46 141.842 39.1 141.722 38.668C141.626 38.212 141.578 37.648 141.578 36.976V24.844C141.578 23.74 141.65 22.804 141.794 22.036C141.962 21.268 142.238 20.632 142.622 20.128C143.03 19.6 143.558 19.192 144.206 18.904C144.878 18.592 145.73 18.328 146.762 18.112C147.194 18.016 147.65 17.932 148.13 17.86C148.61 17.788 149.078 17.728 149.534 17.68C149.99 17.632 150.41 17.596 150.794 17.572C151.202 17.524 151.526 17.5 151.766 17.5C153.254 17.5 154.478 17.572 155.438 17.716C156.398 17.836 157.154 18.016 157.706 18.256C158.258 18.496 158.642 18.784 158.858 19.12C159.074 19.456 159.182 19.816 159.182 20.2C159.182 20.752 159.002 21.196 158.642 21.532C158.282 21.868 157.862 22.036 157.382 22.036C157.046 22.036 156.698 21.976 156.338 21.856C156.002 21.712 155.738 21.544 155.546 21.352C155.282 21.112 155.018 20.896 154.754 20.704C154.49 20.512 154.166 20.356 153.782 20.236C153.422 20.092 152.99 19.996 152.486 19.948C151.982 19.876 151.382 19.84 150.686 19.84C150.518 19.84 150.302 19.852 150.038 19.876C149.798 19.9 149.534 19.924 149.246 19.948C148.982 19.972 148.73 20.008 148.49 20.056C148.25 20.104 148.058 20.14 147.914 20.164C147.338 20.308 146.87 20.464 146.51 20.632C146.174 20.776 145.91 20.992 145.718 21.28C145.55 21.568 145.442 21.952 145.394 22.432C145.346 22.912 145.322 23.548 145.322 24.34V27.58H153.062C153.398 27.58 153.662 27.688 153.854 27.904C154.046 28.12 154.142 28.396 154.142 28.732C154.142 29.068 154.046 29.344 153.854 29.56C153.662 29.776 153.398 29.884 153.062 29.884H145.322V36.364C145.322 36.772 145.346 37.096 145.394 37.336C145.466 37.552 145.598 37.72 145.79 37.84C145.982 37.96 146.27 38.044 146.654 38.092C147.062 38.116 147.59 38.128 148.238 38.128C149.27 38.128 150.194 38.092 151.01 38.02C151.85 37.924 152.594 37.804 153.242 37.66C153.914 37.492 154.526 37.312 155.078 37.12C155.63 36.904 156.146 36.676 156.626 36.436C156.938 36.268 157.214 36.184 157.454 36.184ZM176.332 25.348C178.492 25.348 180.064 25.756 181.048 26.572C182.032 27.388 182.524 28.456 182.524 29.776C182.524 30.184 182.452 30.592 182.308 31C182.188 31.408 182.128 31.78 182.128 32.116V38.92C182.128 39.328 181.984 39.676 181.696 39.964C181.432 40.228 180.988 40.36 180.364 40.36C179.716 40.36 179.248 40.228 178.96 39.964C178.696 39.676 178.564 39.328 178.564 38.92V36.508C177.484 37.732 176.212 38.704 174.748 39.424C173.284 40.144 171.724 40.504 170.068 40.504C167.884 40.504 166.3 40.084 165.316 39.244C164.356 38.38 163.876 37.216 163.876 35.752C163.876 34.504 164.212 33.268 164.884 32.044C165.556 30.796 166.468 29.68 167.62 28.696C168.772 27.688 170.092 26.884 171.58 26.284C173.092 25.66 174.676 25.348 176.332 25.348ZM175.072 27.472C174.016 27.472 173.044 27.676 172.156 28.084C171.268 28.468 170.488 28.984 169.816 29.632C169.168 30.28 168.652 31.024 168.268 31.864C167.908 32.704 167.728 33.568 167.728 34.456C167.728 35.584 168.04 36.46 168.664 37.084C169.312 37.684 170.224 37.984 171.4 37.984C172.408 37.984 173.356 37.792 174.244 37.408C175.132 37 175.9 36.472 176.548 35.824C177.22 35.176 177.748 34.432 178.132 33.592C178.54 32.752 178.744 31.876 178.744 30.964C178.744 29.908 178.408 29.068 177.736 28.444C177.088 27.796 176.2 27.472 175.072 27.472ZM194.986 40.504C194.194 40.504 193.462 40.396 192.79 40.18C192.118 39.964 191.542 39.664 191.062 39.28C190.582 38.896 190.21 38.44 189.946 37.912C189.682 37.384 189.55 36.808 189.55 36.184C189.55 35.632 189.598 35.2 189.694 34.888C189.814 34.552 189.874 34.156 189.874 33.7V28.084H188.254C187.558 28.084 187.21 27.7 187.21 26.932C187.21 26.188 187.558 25.816 188.254 25.816H189.874V22.612C189.874 22.204 190.006 21.868 190.27 21.604C190.558 21.316 191.014 21.172 191.638 21.172C192.286 21.172 192.742 21.316 193.006 21.604C193.294 21.868 193.438 22.204 193.438 22.612V25.816H198.01C198.706 25.816 199.054 26.188 199.054 26.932C199.054 27.7 198.706 28.084 198.01 28.084H193.438V34.708C193.438 37.012 194.314 38.164 196.066 38.164C196.69 38.164 197.206 38.116 197.614 38.02C198.046 37.924 198.466 37.78 198.874 37.588C199.066 37.492 199.234 37.444 199.378 37.444C199.642 37.444 199.858 37.528 200.026 37.696C200.194 37.864 200.278 38.08 200.278 38.344C200.278 38.752 200.074 39.076 199.666 39.316C199.018 39.676 198.274 39.964 197.434 40.18C196.594 40.396 195.778 40.504 194.986 40.504Z" fill="#FCF8F5"/>
</svg>
